<svg width="165" height="42" viewBox="0 0 165 42" fill="none" xmlns="http://www.w3.org/2000/svg">
<path d="M62.5228 28.324C61.5148 28.324 60.5968 28.207 59.7688 27.973C58.9588 27.739 58.2478 27.424 57.6358 27.028C57.0418 26.614 56.5468 26.155 56.1508 25.651C55.7548 25.147 55.4758 24.616 55.3138 24.058L57.8788 23.221C58.1488 23.959 58.6618 24.598 59.4178 25.138C60.1738 25.678 61.1008 25.957 62.1988 25.975C63.5308 25.975 64.5748 25.714 65.3308 25.192C66.1048 24.652 66.4918 23.941 66.4918 23.059C66.4918 22.249 66.1588 21.592 65.4928 21.088C64.8268 20.566 63.9448 20.17 62.8468 19.9L60.6598 19.333C59.7958 19.099 59.0038 18.766 58.2838 18.334C57.5818 17.902 57.0238 17.353 56.6098 16.687C56.1958 16.021 55.9888 15.22 55.9888 14.284C55.9888 12.556 56.5468 11.206 57.6628 10.234C58.7968 9.262 60.4258 8.776 62.5498 8.776C63.7738 8.776 64.8358 8.974 65.7358 9.37C66.6358 9.748 67.3738 10.252 67.9498 10.882C68.5438 11.512 68.9668 12.205 69.2188 12.961L66.6538 13.825C66.3478 13.015 65.8258 12.367 65.0878 11.881C64.3498 11.377 63.4408 11.125 62.3608 11.125C61.2268 11.125 60.3268 11.395 59.6608 11.935C59.0128 12.475 58.6888 13.213 58.6888 14.149C58.6888 14.941 58.9408 15.553 59.4448 15.985C59.9668 16.399 60.6598 16.714 61.5238 16.93L63.7108 17.47C65.4748 17.902 66.8338 18.622 67.7878 19.63C68.7598 20.62 69.2458 21.709 69.2458 22.897C69.2458 23.923 68.9848 24.85 68.4628 25.678C67.9588 26.488 67.2028 27.136 66.1948 27.622C65.2048 28.09 63.9808 28.324 62.5228 28.324ZM81.242 28L81.08 25.516V14.5H83.618V28H81.242ZM71.738 21.412V14.5H74.303V21.412H71.738ZM74.303 21.412C74.303 22.618 74.438 23.545 74.708 24.193C74.996 24.841 75.392 25.291 75.896 25.543C76.4 25.795 76.967 25.93 77.597 25.948C78.695 25.948 79.55 25.561 80.162 24.787C80.774 24.013 81.08 22.924 81.08 21.52H82.187C82.187 22.942 81.971 24.166 81.539 25.192C81.125 26.2 80.531 26.974 79.757 27.514C78.983 28.054 78.038 28.324 76.922 28.324C75.878 28.324 74.96 28.108 74.168 27.676C73.394 27.244 72.791 26.569 72.359 25.651C71.945 24.733 71.738 23.545 71.738 22.087V21.412H74.303ZM86.9267 28V14.5H89.3297L89.4917 16.984V28H86.9267ZM96.2687 28V21.088H98.8337V28H96.2687ZM96.2687 21.088C96.2687 19.864 96.1247 18.937 95.8367 18.307C95.5667 17.659 95.1797 17.209 94.6757 16.957C94.1897 16.705 93.6227 16.57 92.9747 16.552C91.8767 16.552 91.0217 16.939 90.4097 17.713C89.7977 18.487 89.4917 19.576 89.4917 20.98H88.3847C88.3847 19.558 88.5917 18.343 89.0057 17.335C89.4377 16.309 90.0407 15.526 90.8147 14.986C91.6067 14.446 92.5427 14.176 93.6227 14.176C94.6847 14.176 95.6027 14.392 96.3767 14.824C97.1687 15.256 97.7717 15.931 98.1857 16.849C98.6177 17.749 98.8337 18.937 98.8337 20.413V21.088H96.2687ZM101.792 28V9.1H104.357V28H101.792ZM107.801 28V14.5H110.366V28H107.801ZM109.097 11.638C108.683 11.638 108.323 11.485 108.017 11.179C107.711 10.855 107.558 10.486 107.558 10.072C107.558 9.64 107.711 9.28 108.017 8.992C108.323 8.686 108.683 8.533 109.097 8.533C109.529 8.533 109.889 8.686 110.177 8.992C110.483 9.28 110.636 9.64 110.636 10.072C110.636 10.486 110.483 10.855 110.177 11.179C109.889 11.485 109.529 11.638 109.097 11.638ZM119.444 33.751C118.544 33.751 117.725 33.661 116.987 33.481C116.249 33.319 115.628 33.13 115.124 32.914C114.62 32.698 114.242 32.509 113.99 32.347L114.962 30.268C115.196 30.412 115.529 30.574 115.961 30.754C116.393 30.952 116.897 31.114 117.473 31.24C118.049 31.384 118.688 31.456 119.39 31.456C120.218 31.456 120.956 31.285 121.604 30.943C122.252 30.619 122.756 30.106 123.116 29.404C123.494 28.702 123.683 27.802 123.683 26.704V14.5H126.248V26.65C126.248 28.198 125.951 29.494 125.357 30.538C124.781 31.6 123.98 32.401 122.954 32.941C121.946 33.481 120.776 33.751 119.444 33.751ZM119.201 27.811C117.977 27.811 116.906 27.532 115.988 26.974C115.088 26.398 114.377 25.606 113.855 24.598C113.351 23.572 113.099 22.393 113.099 21.061C113.099 19.675 113.351 18.469 113.855 17.443C114.377 16.417 115.088 15.616 115.988 15.04C116.906 14.464 117.977 14.176 119.201 14.176C120.317 14.176 121.289 14.464 122.117 15.04C122.963 15.616 123.611 16.426 124.061 17.47C124.529 18.496 124.763 19.702 124.763 21.088C124.763 22.42 124.529 23.599 124.061 24.625C123.611 25.633 122.963 26.416 122.117 26.974C121.289 27.532 120.317 27.811 119.201 27.811ZM119.849 25.651C120.605 25.651 121.262 25.453 121.82 25.057C122.378 24.643 122.819 24.094 123.143 23.41C123.467 22.708 123.629 21.907 123.629 21.007C123.629 20.107 123.467 19.315 123.143 18.631C122.819 17.947 122.369 17.416 121.793 17.038C121.235 16.642 120.578 16.444 119.822 16.444C119.03 16.444 118.328 16.642 117.716 17.038C117.122 17.416 116.654 17.947 116.312 18.631C115.97 19.315 115.799 20.107 115.799 21.007C115.799 21.907 115.97 22.708 116.312 23.41C116.672 24.094 117.149 24.643 117.743 25.057C118.355 25.453 119.057 25.651 119.849 25.651ZM129.564 28V9.1H132.102V28H129.564ZM138.906 28V21.088H141.444V28H138.906ZM138.906 21.088C138.906 19.864 138.762 18.937 138.474 18.307C138.186 17.659 137.79 17.209 137.286 16.957C136.8 16.705 136.242 16.57 135.612 16.552C134.496 16.552 133.632 16.939 133.02 17.713C132.408 18.487 132.102 19.576 132.102 20.98H131.022C131.022 19.558 131.229 18.343 131.643 17.335C132.075 16.309 132.678 15.526 133.452 14.986C134.244 14.446 135.18 14.176 136.26 14.176C137.322 14.176 138.24 14.392 139.014 14.824C139.788 15.256 140.391 15.931 140.823 16.849C141.255 17.749 141.462 18.937 141.444 20.413V21.088H138.906ZM149.613 28.324C148.263 28.324 147.219 27.982 146.481 27.298C145.743 26.596 145.374 25.597 145.374 24.301V10.288H147.939V23.923C147.939 24.589 148.101 25.102 148.425 25.462C148.767 25.804 149.253 25.975 149.883 25.975C150.063 25.975 150.261 25.939 150.477 25.867C150.693 25.795 150.954 25.651 151.26 25.435L152.232 27.433C151.764 27.739 151.314 27.964 150.882 28.108C150.468 28.252 150.045 28.324 149.613 28.324ZM143.079 16.714V14.5H151.773V16.714H143.079Z" fill="#540F28"/>
<path d="M13.9707 0V20.9558C6.2431 20.9044 0.000148773 16.2336 0.000148773 10.4781C0.000148773 4.72264 6.2431 0.0514331 13.9707 0Z" fill="#540F28"/>
<path d="M31.2676 0V20.9558C23.54 20.9044 17.297 16.2336 17.297 10.4781C17.297 4.72264 23.54 0.0514331 31.2676 0Z" fill="#540F28"/>
<path d="M31.2671 20.9558V41.9116C38.9947 41.8602 45.2376 37.1894 45.2376 31.4339C45.2376 25.6784 38.9947 21.0072 31.2671 20.9558Z" fill="#540F28"/>
<path d="M13.9702 20.9558V41.9116C21.6978 41.8602 27.9408 37.1894 27.9408 31.4339C27.9408 25.6784 21.6978 21.0072 13.9702 20.9558Z" fill="#540F28"/>
</svg>
