<svg width="46" height="42" viewBox="0 0 46 42" fill="none" xmlns="http://www.w3.org/2000/svg">
<path d="M13.9707 0V20.9558C6.2431 20.9044 0.000148773 16.2336 0.000148773 10.4781C0.000148773 4.72264 6.2431 0.0514331 13.9707 0Z" fill="currentColor"/>
<path d="M31.2676 0V20.9558C23.54 20.9044 17.297 16.2336 17.297 10.4781C17.297 4.72264 23.54 0.0514331 31.2676 0Z" fill="currentColor"/>
<path d="M31.2671 20.9558V41.9116C38.9947 41.8602 45.2376 37.1894 45.2376 31.4339C45.2376 25.6784 38.9947 21.0072 31.2671 20.9558Z" fill="currentColor"/>
<path d="M13.9702 20.9558V41.9116C21.6978 41.8602 27.9408 37.1894 27.9408 31.4339C27.9408 25.6784 21.6978 21.0072 13.9702 20.9558Z" fill="currentColor"/>
</svg>
